<svg width="100" height="100" viewBox="0 0 100 100" fill="none" xmlns="http://www.w3.org/2000/svg">
    <symbol id="ml">
        <path d="M49.6296 0.213833C49.8588 0.0815126 50.1412 0.0815129 50.3704 0.213833L92.9309 24.7862C93.1601 24.9185 93.3013 25.163 93.3013 25.4277V74.5723C93.3013 74.837 93.1601 75.0815 92.9309 75.2138L50.3704 99.7862C50.1412 99.9185 49.8588 99.9185 49.6296 99.7862L7.0691 75.2138C6.83991 75.0815 6.69873 74.837 6.69873 74.5723V25.4277C6.69873 25.163 6.83991 24.9185 7.0691 24.7862L49.6296 0.213833Z" fill="#FDFDFD"/>
        <path d="M49.6296 23.7324C49.8588 23.6 50.1412 23.6 50.3704 23.7324L72.5633 36.5454C72.7924 36.6777 72.9336 36.9223 72.9336 37.1869V62.8131C72.9336 63.0777 72.7924 63.3223 72.5633 63.4546L50.3704 76.2676C50.1412 76.4 49.8588 76.4 49.6296 76.2676L27.4367 63.4546C27.2075 63.3223 27.0664 63.0777 27.0664 62.8131V37.1869C27.0664 36.9223 27.2075 36.6777 27.4367 36.5454L49.6296 23.7324Z" fill="#FF3847"/>
        <path d="M35.7407 84.36L18.8889 74.6306C18.6597 74.4983 18.5185 74.2537 18.5185 73.9891V30.8223C18.5185 30.5577 18.3773 30.3131 18.1481 30.1808L14.3519 27.989L31.2105 18.2555C31.4397 18.1232 31.7221 18.1232 31.9512 18.2555L35.3704 20.2296C35.5996 20.3619 35.7407 20.6064 35.7407 20.8711V84.36Z" fill="#0E1A2A"/>
        <path fill-rule="evenodd" clip-rule="evenodd" d="M41.2963 87.1398C41.2963 87.4045 41.4375 87.649 41.6667 87.7813L49.6296 92.3788C49.8588 92.5111 50.1412 92.5111 50.3704 92.3788L62.8704 85.162L59.0741 82.9702C58.8449 82.8379 58.7037 82.5934 58.7037 82.3287V12.8602C58.7037 12.5955 58.5625 12.351 58.3333 12.2187L50.3704 7.62124C50.1412 7.48892 49.8588 7.48892 49.6296 7.62123L37.1296 14.838L40.9259 17.0298C41.1551 17.1621 41.2963 17.4066 41.2963 17.6713V87.1398ZM53.2075 48.5758C53.2075 48.3112 53.0663 48.0666 52.8371 47.9343L50.3704 46.5101C50.1412 46.3778 49.8588 46.3778 49.6296 46.5101L47.1629 47.9343C46.9337 48.0666 46.7925 48.3112 46.7925 48.5758V51.4242C46.7925 51.6888 46.9337 51.9334 47.1629 52.0657L49.6296 53.4899C49.8588 53.6222 50.1412 53.6222 50.3704 53.4899L52.8371 52.0657C53.0663 51.9334 53.2075 51.6888 53.2075 51.4242V48.5758Z" fill="#0E1A2A"/>
        <path d="M64.6296 79.7704C64.4004 79.6381 64.2593 79.3936 64.2593 79.1289V15.64L81.1111 25.3694C81.3403 25.5017 81.4815 25.7463 81.4815 26.0109V69.1777C81.4815 69.4423 81.6227 69.6869 81.8519 69.8192L85.6481 72.011L68.7895 81.7445C68.5603 81.8768 68.2779 81.8768 68.0488 81.7445L64.6296 79.7704Z" fill="#0E1A2A"/>
    </symbol>
</svg>
